_________________________  Visit us at _________________________
  
http://p2pdl.com  ____________________________  http://p2pdl.com


Lion Of The Desert 1981 BRRip 720p x264 AAC - PRiSTiNE [P2PDL]

Genre: Biography | Drama | History | War
Plot: In the Fascist Italy Pre-World War II of Benito Mussolini, the cruel General Rodolfo Graziani is directly assigned by Il Dulce to fight in the colonial war in Libya to vanquish the Arab nation. However, his troops are frequently defeated by the national leader Omar Mukhtar and his army of Bedouins. But the Butcher of Ethiopia and Libya uses a dirty war against the natives, slaughtering children, women and aged people, to subdue Mukhtar.
Director: Stanley Kubrick
Stars: Malcolm McDowell, Patrick Magee, Michael Bates
Rated: No

Info: 
http://www.imdb.com/title/tt0081059/

General
Complete name                  : Lion Of The Desert 1981 BRRip 720p x264 AAC - PRiSTiNE.mp4
Format                         : MPEG-4
File size                      : 1 000 MiB
Duration                       : 2h 53mn
Overall bit rate mode          : Variable
Overall bit rate               : 806 Kbps

Video
Format                         : AVC
Format/Info                    : Advanced Video Codec
Format profile                 : High 10@L4.1
Bit rate                       : 723 Kbps
Width                          : 1 280 pixels
Height                         : 720 pixels
Display aspect ratio           : 16:9
Frame rate mode                : Constant
Frame rate                     : 23.976 fps
Bit depth                      : 10 bits
Stream size                    : 897 MiB (90%)
Writing library                : x264 core 130 r2273 b3065e6

Audio
Format                         : AAC
Bit rate mode                  : Variable
Bit rate                       : 80.0 Kbps
Channel(s)                     : 2 channels
Channel positions              : Front: L R
Sampling rate                  : 48.0 KHz / 24.0 KHz
Stream size                    : 99.2 MiB (10%)
Language                       : English

Subtitle                       : Yes (English)
Source                         : 720p.BluRay.x264-CiNEFiLE (Thanks)

Screenshots:
 
http://www.ultraimg.com/images/7O9ac.jpg 
http://www.ultraimg.com/images/v0ds.jpg 
http://www.ultraimg.com/images/g4nyM.jpg 
http://www.ultraimg.com/images/09kpj.jpg 
http://www.ultraimg.com/images/ZuQbU.jpg

----------------------------------------------------------------------------------------------------


Encoded using revolutionary 10bit encoding, which enables us to provide you more crispier 
and sharper images at small sizes, just make sure you follow our instructions without a fault.
Recommend to you to use latest version of VLC player. Install K-Lite Codec Pack or shark007 codecs
in case of any kind of problem in playback (For non-VLC Media Player users). Alternatively, install
Core AVC codecs, the fastest decoder that there is coupled with Community Center Codec Pack and play
on Windows Media Player Classic. Check sample to be sure.
Enjoy!

Encoder Notes:Looking For Early Access To Anything You Can Provide DVDScr, R5, DVDR, BluRay, Direct
Audio, Music Releases and Seedboxes. We require dedicated servers, so as to do more 
and fast releases of movies.
If You Got anything to offer please contact us at "prg@hush.com".

Face book Fan Page:   
http://www.fb.me/p2pdl